<svg id="Layer_1" data-name="Layer 1" xmlns="http://www.w3.org/2000/svg" viewBox="0 0 138.58 154.75"><defs><style>.cls-1{fill:none;}.cls-2{fill:#0075bf;}</style></defs><title>amnhLOGO_su_1cs_pos [Converted]</title><rect class="cls-1" width="138.58" height="154.75"/><path class="cls-2" d="M7,79H4.55l1.2-3.36h0Zm1.42,2L6.18,74.9H5.4L3.17,81h.66l.55-1.5h2.8L7.71,81Zm5.86,0-.54-4h0l-1.34,4h-.68l-1.3-4h0l-.51,4H9.26l.66-4.67h.82l1.29,4h0l1.31-4h.84L14.87,81Zm60.29,0L74,77h0l-1.34,4H72l-1.29-4h0l-.5,4h-.59l.66-4.67H71l1.28,4h0l1.3-4h.84L75.17,81ZM16.27,81V76.29h2.49v.49H16.87V78.3h1.81v.47H16.87v1.7h1.89V81Zm44.46,0V76.29h2.49v.49h-1.9V78.3h1.81v.47H61.32v1.7h1.9V81ZM22.47,77.52c0,.55-.42.9-1.11.9-.29,0-.43,0-.58,0V76.76l.55,0C22,76.74,22.47,77,22.47,77.52ZM23.38,81l-1.87-2.14c.86,0,1.58-.51,1.58-1.37s-.59-1.17-1.67-1.17H20.19V81h.59V78.88h0L22.61,81ZM32,86.79c0,.55-.43.9-1.11.9-.29,0-.44,0-.58,0V86l.55,0C31.57,86,32,86.25,32,86.79Zm.91,3.44-1.87-2.14c.86,0,1.57-.51,1.57-1.37S32,85.55,31,85.55H29.72v4.67h.6V88.15h0l1.79,2.08Zm34.25-3.44c0,.55-.43.9-1.11.9-.29,0-.44,0-.58,0V86L66,86C66.73,86,67.17,86.25,67.17,86.79Zm.91,3.44L66.2,88.09c.87,0,1.58-.51,1.58-1.37s-.58-1.17-1.66-1.17H64.89v4.67h.59V88.15h0l1.79,2.08ZM28.91,81a2.07,2.07,0,0,1-2.26-2.3,2.27,2.27,0,0,1,2.43-2.47,4.5,4.5,0,0,1,1.11.13l-.05.55A3.57,3.57,0,0,0,29,76.75a1.71,1.71,0,0,0-1.71,1.92,1.61,1.61,0,0,0,1.75,1.83,2.68,2.68,0,0,0,1.14-.25l0,.53A3.36,3.36,0,0,1,28.91,81ZM34,79.44H32.08l1-2.5h0ZM35.25,81l-1.84-4.67h-.66L30.86,81h.62l.41-1h2.3l.41,1ZM18.88,88.71H17l1-2.5h0Zm1.25,1.52-1.84-4.67h-.67l-1.88,4.67h.62l.41-1h2.3l.4,1Zm16.41-1.52H34.62l1-2.5h0Zm1.25,1.52L36,85.56h-.66L33.4,90.23H34l.41-1h2.3l.4,1ZM39.31,81S37,77.28,36.88,77h0v4h-.58V76.29h.83l2.43,4h0v-4h.58V81Zm10.37,0-.79-5.42h0c-.05.23-1.74,5.42-1.74,5.42h-.76l-1.73-5.42h0c0,.47-.65,5.42-.65,5.42H43.3l.8-6.06H45l1.7,5.36h0l1.71-5.36h.93L50.31,81ZM14.23,89.57v-5.4h.61v6.06h-.9l-3.15-5.42h0v5.42h-.61V84.17h.91l3.15,5.4Zm33.49.66V87.32H44.33v2.91h-.61V84.17h.61V86.8h3.39V84.17h.61v6.06ZM53.37,81c-1.21,0-1.89-.57-1.89-1.66V76.29h.6v3a1.16,1.16,0,0,0,1.33,1.26,1.21,1.21,0,0,0,1.36-1.38V76.29h.58V79.2A1.75,1.75,0,0,1,53.37,81Zm13,0c-1.21,0-1.89-.57-1.89-1.66V76.29h.6v3a1.16,1.16,0,0,0,1.33,1.27,1.21,1.21,0,0,0,1.36-1.38V76.29h.58v2.9A1.75,1.75,0,0,1,66.41,81ZM26.26,90.29c-1.22,0-1.89-.56-1.89-1.65V85.56H25v3a1.17,1.17,0,0,0,1.34,1.27,1.22,1.22,0,0,0,1.36-1.38V85.56h.58v2.9A1.75,1.75,0,0,1,26.26,90.29ZM57.68,81a5.06,5.06,0,0,1-1.08-.13l0-.6a3,3,0,0,0,1.12.21c.57,0,1.18-.27,1.18-.87s-.41-.64-1.1-.86-1.32-.48-1.32-1.28.69-1.28,1.78-1.28a7.61,7.61,0,0,1,1,.08l0,.55a3.52,3.52,0,0,0-1-.14c-.7,0-1.15.29-1.15.76s.37.61.87.77c.81.27,1.56.48,1.56,1.37S58.73,81,57.68,81ZM24.5,81V76.29h.59V81ZM50,90.23V85.56h.59v4.67ZM22,86.07v4.16H21.4V86.07H20v-.51h3.44v.51Zm35.48,0v4.16h-.6V86.07H55.45v-.51h3.44v.51ZM38.73,90.23V85.56h.6v4.17h1.76v.5ZM63,87.93a1.62,1.62,0,0,1-1.62,1.84c-1.16,0-1.55-.89-1.55-1.9A1.65,1.65,0,0,1,61.39,86C62.37,86,63,86.68,63,87.93Zm.64-.06c0-1.51-.78-2.37-2.17-2.37a2.25,2.25,0,0,0-2.28,2.43c0,1.36.64,2.36,2.15,2.36A2.22,2.22,0,0,0,63.61,87.87Zm6.88.71v1.65H69.9V88.58l-1.6-3H69L70.19,88h0l1.27-2.41h.62Zm-65.07-1a1.12,1.12,0,0,1,1.24,1.15c0,.8-.56,1.09-1.29,1.09a1.13,1.13,0,0,1-1.24-1.12C4.13,88,4.55,87.59,5.42,87.59Zm0-.54a1.53,1.53,0,0,0-1.74,1.61,1.68,1.68,0,0,0,1.8,1.71,1.53,1.53,0,0,0,1.74-1.6A1.66,1.66,0,0,0,5.37,87.05ZM4.13,85.77H5.25V84.49h.44v1.28H7.12v.5H3.69V84.42h.44Zm49,4.52a4.76,4.76,0,0,1-1.08-.12l0-.59a3.39,3.39,0,0,0,1,.2c.68,0,1.26-.25,1.26-.82,0-.36-.28-.59-.91-.81L53,88c-.57-.2-1.07-.55-1.07-1.23s.71-1.27,1.78-1.27a9.41,9.41,0,0,1,1,.08l0,.55a4.22,4.22,0,0,0-1-.14c-.75,0-1.17.28-1.17.73s.44.64.85.79l.45.16c.91.31,1.14.84,1.14,1.25C55,89.76,54.26,90.29,53.13,90.29ZM10.61,29.09h0l.35-.61A10,10,0,0,1,11.35,27c.15-.24.79-1.09,1-1.35a1.13,1.13,0,0,0,.21-.72v-.63s.1-.34.11-.36a1.29,1.29,0,0,0,.82-1.11c0-.28.43-.91.45-1.16,1-.33,1.25-.86,1.2-1.52,0-.18,0-.37.07-.42.48-.38.77-.44.91-1,.8-.35,1.31-.68,1.27-1.57.31-.19.87-.68.8-1.14.58-.3,1-1.37,1.35-1.6.13,0,.44.14,1-.54.29-.37.86-1.13,1.21-1.26.86-.34,1.18-1.14,2-1.54.76.18.61-.31,1.5-.52s1.67-.41,1.87-1.42c1.41.34,2-.89,3.5-1.11a1.64,1.64,0,0,0,1.06-.64,2.83,2.83,0,0,1,1.74-.6c.6,0,1.07.18,1.54.18s.9-.43,1.35-.43.71.11,1.19.11c.73,0,1-.31,1.67-.31,1.08,0,1.52.52,2.3.52A.93.93,0,0,0,42,6.67a5,5,0,0,0,1.33-.35c.38.41,1.51.38,1.92.4l1.1.06c0,.19.23.45.65.35a.7.7,0,0,0,.89.12.52.52,0,0,0,.69.1,4.55,4.55,0,0,0,1.61.84,1.21,1.21,0,0,1,.51.2,1.3,1.3,0,0,0,1.4.43c.31-.09.45,0,.49.15a.91.91,0,0,0,1,.72c.31.41.75-.08,1.18.33-.09.82.62.78,1.17,1.37s1.11.16,1.79.57a1,1,0,0,0,1.3-.25,8.72,8.72,0,0,0,.66-1c.66-1.48.23-2-.11-2.35s-.83-.12-1-.42-.37-.62-.74-.62c-1,0-1.49-.79-2.31-1s-1.3-.85-1.9-.66c0,0-.17-.54-1.41-1-.74-.27-1.27-.53-1.82-.34-.28-.36-.71-.2-.9-.16h0a1.27,1.27,0,0,0-.82-.43,2.34,2.34,0,0,1-1.2-.41,5,5,0,0,0-3.36-.42,1.05,1.05,0,0,0-1.27-.07,2.25,2.25,0,0,0-1.49,0,1.45,1.45,0,0,0-1.19-.24,1.4,1.4,0,0,0-1.17-.12,3.65,3.65,0,0,0-2.11-.09c-1.06-.16-2.28.52-3.68.52-.42,0-.88-.06-.95.35a8.83,8.83,0,0,1-1.2.1c-1.41,0-1.85,1.21-2.88,1.17a8,8,0,0,0-1.28,0c-1.19.18-1.09.75-1.89,1.37a6.7,6.7,0,0,1-2.61,1.39c-.28.05-.61,0-.89.36a2.69,2.69,0,0,1-.55.69c-.33.24-.66.22-.95.42s-.31.52-.74.82-.84.28-1.15.47-.37.54-.79.86-.89.35-1.27.68a2,2,0,0,0-.7,1s-.21-.09-.51.27l-2.1,2.71c-.12.13-.08.49-.22.66s-.34,0-.47.18.06.36,0,.53-.31.09-.47.41a16.15,16.15,0,0,0-.76,1.46,1,1,0,0,0-.69.41c-.16.3,0,.59-.14.8s-.35.28-.41.52a2,2,0,0,0,.05.64c-.24.73-.81.85-1,1.19s0,.74-.2,1-.45.33-.65.7a1.61,1.61,0,0,0-.15.74.62.62,0,0,0-.39.78c-.29.07-.48.29-.24.72a3.56,3.56,0,0,0-.54,1.93,8.12,8.12,0,0,1-.34,2.22c0,.29.11.45.11.67,0,.46-.34.8-.34,1.41s.26.81.26,1.14-.45.66-.45,1.07.23.64.23,1-.19.6-.19.89c0,.53.26.93.26,1.41s.19.81.19,1.39a15.52,15.52,0,0,0,.25,2.89c.1.89,1.38,1.48,1.29,2a.57.57,0,0,0,.15.56,2,2,0,0,0,2.7.37A3.87,3.87,0,0,0,11.83,43a1.13,1.13,0,0,0-.36-.74,4.5,4.5,0,0,1-.82-4.07,1.52,1.52,0,0,0-.15-.6,4.62,4.62,0,0,1-.38-1.4c0-.41.17-.72.17-1.19s-.11-.53-.08-.86.17-.41.2-.7a1.42,1.42,0,0,0-.11-.61ZM37.14,61.77a3.76,3.76,0,0,0-.2-1.07c0-.14,0-.51,0-.79a5.36,5.36,0,0,0-.22-.58,3.25,3.25,0,0,0-.21-1.46c0-.06.06-.49.06-.63,0-.67-.54-1.05-.54-2,0-.21.09-.36.09-.65a.64.64,0,0,0-.16-.43,2.23,2.23,0,0,0-.07-2.26,3,3,0,0,0-.12-2,.88.88,0,0,0,.07-.93c.45-1,0-1.33,0-1.82a3.67,3.67,0,0,0,0-1.09,9.77,9.77,0,0,1-.18-1.72c0-.66.32-1.11-.33-1.57,0,0,0,0,0,0-.14-.4.62-.78.17-1.27A2.85,2.85,0,0,0,36,40.23c0-.43-.22-.62-.22-1,0-.61.48-.93.53-1.91.44-.21.17-1.28,0-1.67a.6.6,0,0,0,0-.83,8.91,8.91,0,0,0,.12-.92A5.72,5.72,0,0,1,36.76,32a8.07,8.07,0,0,0,.39-1.42,8.8,8.8,0,0,1,.26-1.25A11.78,11.78,0,0,1,38.65,29c.42-.14.48-.37.94-.52a14.64,14.64,0,0,0,1.93-.28,7,7,0,0,0,1.22-.52,7.21,7.21,0,0,0,.92-.23,6.91,6.91,0,0,1,.76-.36c.16,0,.44.06.6,0,.64-.21,1.18-.43,1.84-.58.27-.07,1.1-.19,1.2-.35a1.17,1.17,0,0,0,1,0,1,1,0,0,1,.54-.12,1.66,1.66,0,0,0,1.4-.66,5.93,5.93,0,0,0,1.28-.06c.24-.08.49-.11.65-.5a6.7,6.7,0,0,0,2.87-1,4.86,4.86,0,0,1,1.78-.54,1.69,1.69,0,0,0,1.15-1.65c0-.88-.44-1.43-1.56-1.43a5.09,5.09,0,0,0-2.89.75A2.07,2.07,0,0,0,52.52,22c-.13.16-.34.13-.55.11a1.66,1.66,0,0,0-1,.17.41.41,0,0,0-.59.15,1.17,1.17,0,0,0-1.07.34.58.58,0,0,0-.81.12,1,1,0,0,0-1,.31,2.28,2.28,0,0,0-1.64.28c-.21.07-1.72.05-2.15.79a.76.76,0,0,0-.49,0,2.93,2.93,0,0,1-1.41.33c-.94,0-1.49.44-2.58.44-.92,0-1.59-.41-2.34-.41a7.16,7.16,0,0,1-1,.12,2.15,2.15,0,0,0-1.15-.05.86.86,0,0,0-.9-.07.38.38,0,0,0-.34-.14,1.11,1.11,0,0,0-.16-.83c.19-.11.52-.27.73-.37.66-.3,1.51-.45,1.51-2.27a6.69,6.69,0,0,1,.12-1,3.46,3.46,0,0,0-2-2.86,4.42,4.42,0,0,0-1.63-.33,2.48,2.48,0,0,0-1.89.72.46.46,0,0,0-.38.51c0,.43-.51.87-.35,1.51-.27.09-.28,1-.28,1.26a2.31,2.31,0,0,0,1.07,2.05c0,.63.32.76.33,1.15a.74.74,0,0,0-.15.42,1.54,1.54,0,0,0-1,.17.85.85,0,0,0-.86,0,.83.83,0,0,0-1.05.36,1.86,1.86,0,0,0-1.2.41c-.58-.18-.88,0-1.44.63-.07.1-.34.12-.62.12a1.49,1.49,0,0,0-1.47.54,8,8,0,0,0-2.08.73,2.82,2.82,0,0,1-.78.13,2.77,2.77,0,0,0-1.67.52,7.86,7.86,0,0,1-3.52,1,9.22,9.22,0,0,0-2.52.47,3.83,3.83,0,0,1-1.56-.44l-.56,2,.25,1.73a28.26,28.26,0,0,0,2.83-.1,36.07,36.07,0,0,0,4.48-.43,3.18,3.18,0,0,0,2-.88,11.9,11.9,0,0,0,3.07-.54,1.21,1.21,0,0,0,.7-.56.89.89,0,0,0,1.09-.18A.78.78,0,0,0,25,30a1.7,1.7,0,0,0,1.09-.18,1.37,1.37,0,0,1,.7-.39s-.16,1.09-.16,1.09a.57.57,0,0,0,.09.4,2.4,2.4,0,0,0,0,1.74,6.58,6.58,0,0,1,.1,1.26A10.21,10.21,0,0,1,26.51,36a2.56,2.56,0,0,0,.29,1.38A2.91,2.91,0,0,0,26.47,40a2.05,2.05,0,0,0-.13,2.48,2.66,2.66,0,0,0,0,2.62c.1.2,0,.41-.19.6a2.4,2.4,0,0,0-.21,2.45c-1,.38-.54,1.32-.54,1.7a21.3,21.3,0,0,1-.47,2.44,3.63,3.63,0,0,0,.31,1.84,1.61,1.61,0,0,0-.46,2,2.38,2.38,0,0,0-.58,2.71,2.2,2.2,0,0,1-.25.6l4.11,2.41a.55.55,0,0,0,.09-.28,6.28,6.28,0,0,1-.13-.84c0-.58.25-1.58.25-2.17,0-.41,0-.53,0-.89a1,1,0,0,1,.22-.81,3.34,3.34,0,0,0,.21-2.7h0a.69.69,0,0,0,.15-.54,1.44,1.44,0,0,0,.41-.93,2.87,2.87,0,0,1,.42-1.45,3,3,0,0,0,.4-1.7c0-.83.28-.91.28-1.3a4.05,4.05,0,0,0-.12-.47,3.17,3.17,0,0,0,.17-.69,2.84,2.84,0,0,1,.5-1.37c.26-.28.79-.31,1.82-.29,0,.14,0,.29,0,.43s0,.5,0,.71a4.37,4.37,0,0,0,0,.63c0,.22-.11.36-.11.49,0,.39,0,.76,0,1s-.05.56-.05.86a.67.67,0,0,0,.19.5c-.07.19-.09.64-.18,1a2.86,2.86,0,0,0-.1.73c0,.49.24,1.07.24,1.7,0,.38.07.6.07.75a1.06,1.06,0,0,1-.07.46,1.1,1.1,0,0,0-.07.36,5.22,5.22,0,0,0,.19.94A4.28,4.28,0,0,1,33,57c0,.15,0,.31,0,.49a1,1,0,0,0,.12.62c0,.15,0,.57,0,.74a2.6,2.6,0,0,0,.22,1.45.49.49,0,0,0-.18.5c.1.55.3,1.43.34,1.65Zm-1.77.13-1.94.58a.86.86,0,0,0-.16.73c-.06,0-.1.11-.15.16a1.66,1.66,0,0,0-.71.08,1.09,1.09,0,0,0-1.07-.27H31s0,0,0,0-.24-.29-.64-.26A1.75,1.75,0,0,0,28.16,62c0-.05-.07-.11-.11-.17l-2-1.6-2.15-.81c-.76-.08-1-.2-1.38-.8a1.79,1.79,0,0,0-.5-.59c-.77-.54-2-1.18-2.76-1.8a.44.44,0,0,0-.17-.4,10.33,10.33,0,0,1-1.49-1.25c-.07-1.28-1.38-1.57-2-1.57-.76,0-2.1.52-2,1.67a1,1,0,0,0-.55.79c0,.85.41,1,.89,1.3.13.09.31.17.37.32a2.52,2.52,0,0,0,1,1.05,4.21,4.21,0,0,1,.48.35,9.06,9.06,0,0,0,1,.84,8.31,8.31,0,0,0,1.66,1.25c.08.31.09,1.05,1.05,1a2.13,2.13,0,0,1,.44.43.58.58,0,0,0,.76.74l.2.12a.46.46,0,0,0,.55.31,1.18,1.18,0,0,1,1.08.36,1,1,0,0,0-.38.68.8.8,0,0,0-.43.28,15.6,15.6,0,0,1-1.28,1.08,3.8,3.8,0,0,0-.61.62,1.59,1.59,0,0,1-.48.46.92.92,0,0,0,0,1.63.51.51,0,0,0,.49.35c.27,0,.66.2,1.12.2a1.41,1.41,0,0,0,.67-.17,3.12,3.12,0,0,0,2.32-.9,4.26,4.26,0,0,0,2.71-2.07s1.41.67,1.95.95a1.07,1.07,0,0,0,.77,0c.21,0,4.29,1.09,4.29,1.09,0,.17.26.35.47.35a.43.43,0,0,0,.44-.24.83.83,0,0,1,.43,0,4.26,4.26,0,0,0,1.28.31,15,15,0,0,0,1.48.3c.61,0,1.11-.47,1.84-.47s1.41.25,2.19.25a2.53,2.53,0,0,0,1.13-.26A3.93,3.93,0,0,0,45,67.5c.29-.22.39-.42.55-.42s.56.38,1,.38a1.27,1.27,0,0,0,.92-.34,1.07,1.07,0,0,0,1-.25,1.38,1.38,0,0,0,1.46-.53c.73.14.85-.08,1-.23a.87.87,0,0,0,.69-.11c.16-.13.22-.26.51-.3A3.74,3.74,0,0,0,54,64.78c.31-.24.55-.31.81-.52a2.8,2.8,0,0,1,.71-.46,8.79,8.79,0,0,0,1.67-.67,1,1,0,0,0,.49-.46c.65,0,1-.45,1.28-1.11,1.25-.21,3.17-2.17,4.35-3.37a3.21,3.21,0,0,0,1.38-1.35,2.88,2.88,0,0,1,.69-.83c.83-.58,1-.88,1-1.42s-.16-1.05-.15-1.28c.35-.4.8-.47.85-.94.36-.17.27-.68.38-.95a2.11,2.11,0,0,0,1.34-1.48c.31-1.16.93-1.58,1.26-3.17a1.29,1.29,0,0,1,.52-.85,1.74,1.74,0,0,0,.54-1c0-.12.27-.63.34-.79A9.11,9.11,0,0,0,71.65,43a3.82,3.82,0,0,0,.45-1.42,1.13,1.13,0,0,0-.19-.47.49.49,0,0,0-.48-.67c0-.14,0-.74,0-.87s.4-.61.4-1.21a1.39,1.39,0,0,0-.2-.7,1.57,1.57,0,0,0,.46-.74c.11-.3,0-2.29.07-2.6S72,32.9,72,32.58s0-.49,0-.82-.68-1.22-.73-1.3-.36-1.13-.37-1.25a1,1,0,0,0-.35-.73c-.12-.35-.47-1.32-.62-1.72a1,1,0,0,0-.51-.59c-.25-.47-1.7-1-2.78.64a2,2,0,0,0-.44,1.12,7.88,7.88,0,0,0,.33,1.93c.08.19.23.64.35.93.22.49,0,2.2.27,2.85.15.29.57,1,.68,1.2a3.74,3.74,0,0,1,0,1.24,3.52,3.52,0,0,0,.25,1A2,2,0,0,0,67,38.8c0,.38.19,1,.19,1.24s0,.37,0,.41c0,.53.16.78.16,1.17s-.6,1.19-.6,1.67c0,.24.07.7.07.84a.55.55,0,0,0-.15.75,3.77,3.77,0,0,0-1.31,2.94.57.57,0,0,0-.41.47,3.26,3.26,0,0,1-1.25,1.85c-.55.37-1.25.9-1.25,1.65a10.81,10.81,0,0,0,.3,1.3h0c-.13.33-.79.5-1.16.89a4,4,0,0,1-.53.55c-.26.19-.62.25-.86.6-.48.67-.94,2.18-2.49,2.37-.88.1-1.31.24-1.52,1.59a5.69,5.69,0,0,0-1.72,1.1.53.53,0,0,0-.8.36,6.46,6.46,0,0,0-1.12.39.48.48,0,0,0-.33.33c-.29.11-1,0-1.59.17a10.21,10.21,0,0,0-1.35.71c-.27.11-.73.13-.88.51H47.5c-1.22,0-1.56.61-2.2.61a8.72,8.72,0,0,0-1.64.09,9.12,9.12,0,0,0-1.11.34L41.06,64c-.31-.54-1.66-.76-2.16-1.1a5.18,5.18,0,0,1-1-.9.86.86,0,0,0-.73-.21Z" transform="translate(30.13 31.09)"/></svg>