<?xml version="1.0" encoding="utf-8"?>
<!-- Generator: Adobe Illustrator 24.0.1, SVG Export Plug-In . SVG Version: 6.00 Build 0)  -->
<svg version="1.1" id="Layer_1" xmlns="http://www.w3.org/2000/svg" xmlns:xlink="http://www.w3.org/1999/xlink" x="0px" y="0px"
	 viewBox="0 0 792 612" style="enable-background:new 0 0 792 612;" xml:space="preserve">
<style type="text/css">
	.Arched_x0020_Green{fill:url(#SVGID_1_);stroke:#FFFFFF;stroke-width:0.25;stroke-miterlimit:1;}
	.st0{fill:none;}
	.st1{fill:#004BB4;}
</style>
<linearGradient id="SVGID_1_" gradientUnits="userSpaceOnUse" x1="90" y1="702" x2="90.7071" y2="701.2929">
	<stop  offset="0" style="stop-color:#20AC4B"/>
	<stop  offset="0.9831" style="stop-color:#19361A"/>
</linearGradient>
<rect x="326.71" y="228.62" class="st0" width="138.58" height="154.75"/>
<path class="st1" d="M363.83,338.66h-2.44l1.2-3.36h0.03L363.83,338.66z M365.25,340.67l-2.23-6.06h-0.78l-2.23,6.06h0.66l0.55-1.5
	h2.81l0.53,1.5H365.25z M371.1,340.67l-0.54-3.98h-0.03l-1.34,3.98h-0.69l-1.29-3.98h-0.03l-0.5,3.98h-0.59l0.66-4.67h0.82l1.28,4
	h0.03l1.31-4h0.84l0.67,4.67H371.1z M431.4,340.67l-0.54-3.98h-0.03l-1.34,3.98h-0.69l-1.29-3.98h-0.03l-0.5,3.98h-0.59l0.66-4.67
	h0.82l1.28,4h0.03l1.31-4h0.84l0.67,4.67H431.4z M373.11,340.67v-4.67h2.49v0.48h-1.89v1.52h1.81v0.48h-1.81v1.69h1.89v0.5H373.11z
	 M417.56,340.67v-4.67h2.49v0.48h-1.89v1.52h1.81v0.48h-1.81v1.69h1.89v0.5H417.56z M379.31,337.24c0,0.55-0.43,0.9-1.11,0.9
	c-0.29,0-0.44-0.02-0.58-0.03v-1.63c0.13-0.01,0.28-0.03,0.56-0.03C378.87,336.45,379.31,336.69,379.31,337.24z M380.21,340.67
	l-1.87-2.14c0.86-0.04,1.58-0.5,1.58-1.37c0-0.75-0.59-1.17-1.67-1.17c-0.55,0-0.96,0.01-1.23,0.02v4.67h0.59v-2.08h0.05l1.78,2.08
	H380.21z M388.84,346.51c0,0.54-0.43,0.9-1.11,0.9c-0.29,0-0.43-0.02-0.58-0.03v-1.63c0.13-0.01,0.28-0.02,0.56-0.02
	C388.41,345.72,388.84,345.96,388.84,346.51z M389.75,349.94c0,0-1.87-2.14-1.87-2.14c0.86-0.04,1.58-0.5,1.58-1.37
	c0-0.75-0.59-1.17-1.67-1.17c-0.55,0-0.96,0.01-1.23,0.02v4.67h0.59v-2.08h0.04l1.79,2.08H389.75z M424,346.51
	c0,0.54-0.42,0.9-1.11,0.9c-0.29,0-0.44-0.02-0.58-0.03v-1.63c0.13-0.01,0.28-0.02,0.56-0.02C423.57,345.72,424,345.96,424,346.51z
	 M424.91,349.94c0,0-1.87-2.14-1.87-2.14c0.86-0.04,1.58-0.5,1.58-1.37c0-0.75-0.59-1.17-1.67-1.17c-0.56,0-0.96,0.01-1.23,0.02
	v4.67h0.59v-2.08h0.05l1.79,2.08H424.91z M385.74,340.74c-1.45,0-2.25-0.85-2.25-2.3c0-1.35,0.75-2.47,2.43-2.47
	c0.37,0,0.76,0.04,1.1,0.13l-0.05,0.55c-0.39-0.13-0.75-0.19-1.12-0.19c-1.17,0-1.72,0.88-1.72,1.91c0,1.17,0.59,1.84,1.75,1.84
	c0.39,0,0.82-0.09,1.14-0.25l0.05,0.53C386.7,340.65,386.25,340.74,385.74,340.74z M390.84,339.15h-1.92l0.96-2.49h0.01
	L390.84,339.15z M392.08,340.67l-1.84-4.67h-0.67l-1.88,4.67h0.62l0.41-1.05h2.3l0.4,1.05H392.08z M375.71,348.42h-1.92l0.96-2.5
	h0.01L375.71,348.42z M376.96,349.94l-1.84-4.67h-0.66l-1.88,4.67h0.62l0.41-1.05h2.3l0.4,1.05H376.96z M393.37,348.42h-1.92
	l0.96-2.5h0.01L393.37,348.42z M394.62,349.94l-1.84-4.67h-0.66l-1.89,4.67h0.62l0.42-1.05h2.3l0.4,1.05H394.62z M396.14,340.67
	c0,0-2.27-3.68-2.43-3.98h-0.03v3.98h-0.58v-4.67h0.83l2.43,3.96h0.04v-3.96H397v4.67H396.14z M406.51,340.67l-0.79-5.42h-0.04
	c-0.05,0.23-1.74,5.42-1.74,5.42h-0.76l-1.73-5.42h-0.03c-0.03,0.47-0.65,5.42-0.65,5.42h-0.64l0.81-6.06h0.93l1.71,5.36h0.02
	l1.71-5.36h0.93l0.91,6.06H406.51z M371.07,349.28l0-5.39h0.61v6.06h-0.91l-3.15-5.42h-0.02v5.42h-0.61v-6.06h0.91l3.15,5.39H371.07
	z M404.56,349.94v-2.91h-3.4v2.91h-0.61v-6.06h0.61v2.62h3.4v-2.62h0.61v6.06H404.56z M410.21,340.74c-1.21,0-1.89-0.57-1.89-1.65
	v-3.08h0.59v2.98c0,0.85,0.49,1.26,1.34,1.26c1.01,0,1.36-0.58,1.36-1.38v-2.86h0.58v2.9C412.19,339.89,411.62,340.74,410.21,340.74
	z M423.24,340.74c-1.21,0-1.88-0.57-1.88-1.65v-3.08h0.59v2.98c0,0.85,0.49,1.27,1.34,1.27c1.01,0,1.36-0.58,1.36-1.38v-2.86h0.58
	v2.9C425.23,339.88,424.66,340.74,423.24,340.74z M383.09,350.01c-1.21,0-1.89-0.56-1.89-1.65v-3.08h0.59v2.98
	c0,0.85,0.49,1.27,1.34,1.27c1.01,0,1.36-0.58,1.36-1.38v-2.87h0.58v2.9C385.07,349.16,384.51,350.01,383.09,350.01z M414.52,340.74
	c-0.38,0-0.85-0.06-1.08-0.13l0.04-0.6c0.19,0.07,0.56,0.21,1.12,0.21c0.57,0,1.18-0.28,1.18-0.87c0-0.49-0.41-0.64-1.1-0.86
	c-0.71-0.22-1.32-0.48-1.32-1.28c0-0.8,0.69-1.28,1.78-1.28c0.29,0,0.69,0.04,0.97,0.08l-0.03,0.55c-0.12-0.03-0.47-0.14-0.97-0.14
	c-0.69,0-1.15,0.29-1.15,0.76c0,0.45,0.37,0.61,0.87,0.77c0.81,0.27,1.56,0.47,1.56,1.36C416.38,340.19,415.57,340.74,414.52,340.74
	z M381.33,340.67v-4.67h0.59v4.67H381.33z M406.85,349.94v-4.67h0.59v4.67H406.85z M378.83,345.78v4.16h-0.59v-4.16h-1.42v-0.5h3.44
	v0.5H378.83z M414.3,345.78v4.16h-0.59v-4.16h-1.42v-0.5h3.44v0.5H414.3z M395.57,349.94v-4.67h0.59v4.16h1.77v0.5H395.57z
	 M419.8,347.64c0,1.2-0.7,1.84-1.62,1.84c-1.16,0-1.55-0.89-1.55-1.9c0-1.2,0.75-1.85,1.59-1.85
	C419.21,345.73,419.8,346.4,419.8,347.64z M420.45,347.58c0-1.51-0.78-2.37-2.17-2.37c-1.23,0-2.28,0.88-2.28,2.43
	c0,1.36,0.64,2.36,2.14,2.36C419.44,350.01,420.45,349.14,420.45,347.58z M427.33,348.3v1.65h-0.59v-1.65l-1.6-3.02h0.66l1.23,2.4
	h0.05l1.27-2.4h0.62L427.33,348.3z M362.25,347.3c0.81,0,1.24,0.51,1.24,1.15c0,0.8-0.56,1.1-1.28,1.1c-0.81,0-1.25-0.54-1.25-1.12
	C360.96,347.74,361.39,347.3,362.25,347.3z M362.2,346.76c-1.12,0-1.74,0.61-1.74,1.62c0,0.92,0.66,1.71,1.8,1.71
	c1,0,1.74-0.5,1.74-1.61C364,347.52,363.35,346.76,362.2,346.76z M360.97,345.48h1.11v-1.28h0.44v1.28h1.43v0.5h-3.43v-1.86h0.45
	V345.48z M409.96,350.01c-0.55,0-0.95-0.1-1.08-0.12l0.04-0.59c0.12,0.04,0.54,0.21,1.04,0.21c0.68,0,1.26-0.25,1.26-0.83
	c0-0.36-0.28-0.59-0.91-0.81c-0.05-0.02-0.34-0.12-0.44-0.16c-0.57-0.2-1.07-0.55-1.07-1.23c0-0.77,0.71-1.26,1.78-1.26
	c0.41,0,0.83,0.06,0.97,0.08l-0.03,0.55c-0.06-0.02-0.5-0.15-0.96-0.15c-0.75,0-1.17,0.28-1.17,0.74c0,0.46,0.43,0.64,0.84,0.78
	c0.12,0.04,0.34,0.12,0.45,0.16c0.9,0.32,1.13,0.85,1.13,1.26C411.83,349.48,411.09,350.01,409.96,350.01z M367.45,288.8
	C367.52,288.7,367.45,288.8,367.45,288.8l0.35-0.6c0.09-0.24,0.19-1.1,0.39-1.46c0.15-0.23,0.8-1.09,0.96-1.35
	c0.17-0.24,0.21-0.49,0.21-0.71c0-0.09-0.01-0.64-0.01-0.64s0.11-0.34,0.12-0.36c0.61-0.23,0.78-0.78,0.81-1.12
	c0.02-0.28,0.43-0.91,0.45-1.16c1.02-0.34,1.25-0.86,1.21-1.52c-0.02-0.18,0-0.37,0.07-0.41c0.47-0.38,0.76-0.44,0.91-1
	c0.81-0.35,1.31-0.68,1.27-1.57c0.31-0.19,0.87-0.68,0.8-1.13c0.58-0.31,0.96-1.38,1.34-1.6c0.14,0.03,0.44,0.14,1-0.54
	c0.29-0.37,0.86-1.13,1.21-1.26c0.86-0.34,1.18-1.14,2-1.54c0.76,0.19,0.61-0.3,1.5-0.52c0.85-0.21,1.67-0.41,1.87-1.42
	c1.41,0.35,2.01-0.88,3.49-1.1c0.62-0.1,0.77-0.37,1.07-0.65c0.28-0.26,1.01-0.59,1.74-0.59c0.59,0,1.07,0.17,1.53,0.17
	c0.61,0,0.9-0.42,1.35-0.42c0.4,0,0.71,0.11,1.19,0.11c0.73,0,1.01-0.31,1.67-0.31c1.08,0,1.52,0.51,2.3,0.51
	c0.1,0,0.42-0.07,0.55-0.22c0.56-0.02,1.3-0.35,1.33-0.35c0.38,0.41,1.51,0.38,1.92,0.4c0.36,0.01,0.7,0.04,1.1,0.06
	c-0.02,0.19,0.23,0.46,0.65,0.35c0.31,0.33,0.6,0.23,0.89,0.12c0.15,0.18,0.42,0.26,0.69,0.1c0.54,0.53,1.43,0.78,1.61,0.84
	c0.17,0.06,0.38,0.07,0.51,0.21c0.58,0.62,1.16,0.5,1.4,0.42c0.31-0.08,0.45,0,0.49,0.15c0.04,0.16,0.27,0.81,0.98,0.72
	c0.3,0.41,0.75-0.08,1.18,0.33c-0.08,0.83,0.62,0.79,1.17,1.37c0.52,0.55,1.12,0.17,1.79,0.57c0.57,0.36,1.16,0,1.3-0.25
	c0.06-0.13,0.41-0.51,0.66-1.04c0.66-1.48,0.24-1.96-0.1-2.35c-0.25-0.3-0.84-0.12-1-0.42c-0.14-0.28-0.37-0.62-0.74-0.62
	c-1.01-0.01-1.49-0.79-2.31-1.02c-0.82-0.22-1.3-0.85-1.9-0.65c-0.03-0.03-0.18-0.54-1.42-0.97c-0.74-0.27-1.26-0.53-1.82-0.34
	c-0.28-0.36-0.71-0.2-0.9-0.16l0,0.01c-0.28-0.25-0.55-0.45-0.83-0.43c-0.41,0-0.8-0.17-1.19-0.41c-1.02-0.65-2.67-0.61-3.36-0.42
	c-0.19-0.14-0.67-0.45-1.27-0.07c-0.46-0.18-1.08-0.22-1.49-0.05c-0.24-0.24-0.94-0.36-1.19-0.24c-0.3-0.23-0.8-0.23-1.17-0.12
	c-0.7-0.39-2.11-0.11-2.11-0.09c-1.06-0.16-2.28,0.52-3.68,0.52c-0.42,0-0.88-0.06-0.95,0.35c-0.28,0.05-0.65,0.09-1.2,0.1
	c-1.41,0.03-1.85,1.21-2.88,1.17c-0.1,0-0.81-0.03-1.28,0.05c-1.19,0.18-1.09,0.74-1.89,1.36c-0.49,0.36-1.64,1.28-2.6,1.4
	c-0.29,0.05-0.61,0.01-0.89,0.36c-0.2,0.26-0.25,0.46-0.55,0.68c-0.33,0.24-0.66,0.22-0.95,0.42c-0.31,0.22-0.31,0.52-0.73,0.82
	c-0.45,0.32-0.84,0.28-1.15,0.47c-0.42,0.27-0.37,0.54-0.79,0.86c-0.56,0.41-0.89,0.35-1.27,0.68c-0.57,0.45-0.62,0.89-0.7,1.02
	c-0.02,0-0.2-0.09-0.51,0.27c-0.21,0.27-2.1,2.71-2.1,2.71c-0.12,0.14-0.08,0.5-0.21,0.66c-0.19,0.21-0.34,0-0.48,0.18
	c-0.14,0.17,0.06,0.36,0,0.53c-0.08,0.19-0.31,0.09-0.46,0.41c-0.1,0.19-0.65,1.13-0.76,1.46c-0.23,0.06-0.53,0.13-0.69,0.41
	c-0.17,0.29-0.04,0.59-0.15,0.8c-0.1,0.22-0.35,0.28-0.41,0.51c-0.06,0.26,0.06,0.58,0.05,0.65c-0.24,0.73-0.81,0.85-1,1.19
	c-0.23,0.43-0.04,0.75-0.2,1.02c-0.25,0.41-0.45,0.33-0.65,0.7c-0.13,0.22-0.13,0.46-0.15,0.74c-0.12,0.06-0.53,0.24-0.39,0.78
	c-0.3,0.06-0.48,0.29-0.25,0.72c-0.39,0.59-0.54,1.32-0.54,1.93c0,1.6-0.34,1.78-0.34,2.22c0,0.29,0.11,0.45,0.11,0.67
	c0,0.46-0.35,0.8-0.35,1.41c0,0.73,0.26,0.81,0.26,1.14c0,0.33-0.45,0.65-0.45,1.06c0,0.42,0.23,0.64,0.23,1.01
	c0,0.36-0.19,0.6-0.19,0.88c0,0.54,0.26,0.93,0.26,1.41c0,0.63,0.2,0.81,0.2,1.39c0,1.61,0.15,2.23,0.24,2.89
	c0.11,0.89,1.38,1.48,1.3,2.03c-0.02,0.18-0.08,0.32,0.14,0.56c0.75,0.83,1.92,0.96,2.71,0.37c0.62-0.42,1.29-1.72,1.29-2.31
	c0-0.34-0.22-0.59-0.35-0.74c-0.93-1.07-1.12-2.3-0.83-4.07c0.01-0.17-0.08-0.46-0.14-0.61c-0.2-0.5-0.39-1.05-0.39-1.4
	c0-0.41,0.17-0.71,0.17-1.19c0-0.39-0.11-0.53-0.08-0.86c0.03-0.27,0.17-0.41,0.2-0.7c0.03-0.3-0.1-0.61-0.1-0.61L367.45,288.8z
	 M393.97,321.49c0.03-0.49-0.17-0.82-0.2-1.08c-0.04-0.13,0.04-0.51-0.01-0.78c-0.05-0.28-0.21-0.47-0.23-0.58
	c-0.05-0.33,0.1-0.88-0.2-1.46c0-0.06,0.06-0.49,0.06-0.64c0-0.66-0.54-1.05-0.54-2.03c0-0.21,0.09-0.36,0.09-0.65
	c0-0.15-0.05-0.31-0.16-0.43c0.54-0.87,0.18-1.75-0.07-2.26c0.17-0.88,0.12-1.51-0.12-2c0.26-0.25,0.16-0.75,0.07-0.92
	c0.45-0.98,0.02-1.34,0.02-1.82c0-0.16,0.1-0.7-0.02-1.09c-0.09-0.41-0.18-1.19-0.18-1.73c0-0.66,0.31-1.11-0.33-1.57
	c0.01,0,0.02-0.04,0.02-0.04c-0.14-0.4,0.63-0.77,0.17-1.26c0.03-0.08,0.48-0.7,0.48-1.22c0-0.43-0.22-0.62-0.22-1.05
	c0-0.61,0.48-0.93,0.53-1.91c0.44-0.21,0.17-1.28-0.03-1.67c0.35-0.41,0.04-0.76-0.02-0.83c0-0.35,0.12-0.33,0.12-0.92
	c0-0.72,0.18-1.26,0.38-1.88c0.05-0.15,0.33-0.94,0.39-1.42c0.09-0.56,0.18-1.03,0.26-1.25c0.48-0.2,0.85-0.18,1.24-0.31
	c0.42-0.14,0.48-0.37,0.94-0.52c0.28-0.09,0.89,0,1.93-0.28c0.55-0.14,0.95-0.42,1.22-0.52c0.27-0.1,0.54-0.08,0.92-0.24
	c0.37-0.16,0.47-0.27,0.76-0.36c0.16-0.05,0.44,0.06,0.6,0c0.64-0.21,1.18-0.43,1.84-0.58c0.27-0.07,1.09-0.18,1.2-0.35
	c0.38,0.12,0.75,0.15,1.04-0.04c0.21-0.12,0.3-0.11,0.54-0.12c0.34-0.02,1.1-0.1,1.4-0.66c0.14-0.01,0.96,0.05,1.28-0.07
	c0.24-0.07,0.49-0.11,0.65-0.49c1.06-0.06,2.04-0.52,2.87-0.97c0.56-0.26,0.96-0.45,1.78-0.54c0.46-0.06,1.15-0.74,1.15-1.64
	c0-0.88-0.43-1.43-1.55-1.43c-1.52,0-2.49,0.46-2.89,0.75c-1.04,0-1.48,0.64-1.81,1.08c-0.12,0.17-0.33,0.13-0.55,0.11
	c-0.26-0.02-0.63-0.03-0.98,0.17c-0.3-0.16-0.54,0.02-0.59,0.15c-0.38-0.06-0.78,0.03-1.06,0.34c-0.39-0.26-0.71-0.02-0.81,0.12
	c-0.17-0.05-0.68-0.14-1.04,0.31c-0.64-0.2-1.11,0.08-1.64,0.28c-0.21,0.08-1.72,0.05-2.15,0.79c-0.15-0.02-0.32-0.05-0.49,0.04
	c-0.52,0.27-0.93,0.32-1.41,0.34c-0.94,0.03-1.49,0.44-2.58,0.44c-0.93,0-1.6-0.42-2.34-0.42c-0.36,0-0.67,0.17-1.01,0.12
	c-0.28-0.04-0.7-0.2-1.15-0.04c-0.24-0.2-0.64-0.22-0.9-0.08c-0.1-0.1-0.18-0.15-0.34-0.14c0.03-0.23,0.03-0.52-0.16-0.83
	c0.19-0.11,0.51-0.27,0.73-0.36c0.66-0.3,1.51-0.45,1.51-2.27c0-0.67,0.12-0.74,0.12-1.02c0-1.04-0.92-2.48-1.99-2.85
	c-0.56-0.2-0.94-0.33-1.63-0.33c-0.9,0-1.69,0.39-1.89,0.71c-0.07,0.02-0.38,0.08-0.38,0.51c0,0.44-0.51,0.87-0.35,1.51
	c-0.27,0.09-0.28,0.98-0.28,1.26c0,0.73,0.14,1.29,1.07,2.04c0.02,0.63,0.32,0.76,0.33,1.15c-0.09,0.13-0.14,0.27-0.14,0.42
	c-0.4-0.06-0.78,0.02-1.03,0.17c-0.25-0.15-0.59-0.16-0.86,0c-0.43-0.17-0.85,0-1.05,0.35c-0.4,0-0.91,0.13-1.2,0.41
	c-0.58-0.18-0.88-0.02-1.43,0.63c-0.08,0.1-0.35,0.12-0.62,0.12c-0.73-0.03-1.15,0.08-1.47,0.53c-0.79,0.14-1.53,0.47-2.08,0.73
	c-0.2,0.08-0.49,0.11-0.78,0.13c-0.51,0.04-1.14,0.09-1.66,0.53c-2.11,0.97-2.73,0.89-3.52,0.96c-0.78,0.07-1.59,0.14-2.52,0.47
	c-0.44-0.03-1.12-0.17-1.56-0.44l-0.56,2l0.25,1.73c1.01,0.01,1.95-0.02,2.83-0.1c1.28-0.04,3.49-0.22,4.48-0.42
	c0.73-0.14,1.41-0.26,1.98-0.88c0.98-0.04,1.91-0.19,3.08-0.54c0.36-0.11,0.5-0.29,0.69-0.55c0.29,0.12,0.7,0.22,1.09-0.18
	c0.19,0.02,0.36-0.02,0.54-0.15c0.47,0.03,0.84,0,1.09-0.18c0.16-0.12,0.31-0.32,0.7-0.39c-0.01,0.03-0.16,1.09-0.16,1.09
	c-0.03,0.2,0.06,0.33,0.09,0.4c-0.37,0.65-0.1,1.53-0.04,1.74c0.04,0.2,0.1,0.62,0.1,1.26c0,1.22-0.2,1.55-0.25,2.11
	c-0.05,0.36,0.03,0.81,0.28,1.38c-0.53,1.1-0.65,1.89-0.33,2.58c-0.66,1.01-0.59,1.85-0.13,2.48c-0.38,0.62-0.53,1.5-0.01,2.62
	c0.1,0.2-0.04,0.41-0.19,0.6c-0.2,0.27-0.75,1.02-0.22,2.45c-0.98,0.38-0.54,1.32-0.54,1.7c0,0.82-0.47,2.12-0.47,2.44
	c0,0.8,0.03,1.33,0.31,1.85c-0.74,0.68-0.71,1.49-0.46,1.95c-0.63,0.77-1.11,1.73-0.58,2.72c-0.02,0.15-0.14,0.39-0.25,0.6
	l4.11,2.41c0.04-0.09,0.09-0.18,0.09-0.28c0-0.2-0.13-0.41-0.13-0.84c0-0.58,0.25-1.57,0.25-2.17c0-0.41-0.04-0.54-0.04-0.89
	c0-0.29-0.01-0.53,0.22-0.81c0.36-0.43,0.58-1.87,0.21-2.7l0.01-0.01c0.16-0.13,0.17-0.44,0.16-0.54c0.24-0.31,0.4-0.54,0.4-0.93
	c0-0.5,0.17-1.02,0.42-1.45c0.38-0.67,0.4-1.18,0.4-1.71c0-0.82,0.28-0.91,0.28-1.3c0-0.13-0.11-0.34-0.12-0.47
	c0.1-0.25,0.11-0.39,0.17-0.69c0.05-0.31,0.17-1.05,0.5-1.38c0.26-0.28,0.79-0.3,1.82-0.29c0,0.14,0.01,0.29,0.01,0.44
	c0,0.25-0.02,0.5-0.04,0.71c-0.03,0.22,0.01,0.43,0.01,0.63c0,0.21-0.11,0.36-0.11,0.48c0,0.39,0.02,0.76,0.02,1.02
	c0,0.31-0.05,0.56-0.05,0.86c0,0.27,0.09,0.41,0.19,0.5c-0.07,0.19-0.09,0.65-0.18,0.98c-0.06,0.24-0.1,0.46-0.1,0.73
	c0,0.49,0.25,1.07,0.25,1.7c0,0.38,0.07,0.6,0.07,0.75c0,0.15,0,0.3-0.07,0.46c-0.04,0.09-0.07,0.26-0.07,0.36
	c0,0.29,0.13,0.67,0.2,0.94c0.09,0.39,0.15,0.72,0.15,1.13c0,0.15-0.01,0.31-0.02,0.49c-0.04,0.29,0.04,0.45,0.12,0.62
	c0,0.16,0,0.57-0.02,0.74c-0.02,0.35-0.09,0.81,0.22,1.45c-0.12,0.1-0.23,0.26-0.18,0.5c0.1,0.55,0.3,1.43,0.34,1.65L393.97,321.49z
	 M392.21,321.61l-1.94,0.59c-0.19,0.21-0.19,0.46-0.16,0.73c-0.06,0.05-0.1,0.1-0.15,0.16c0,0-0.31-0.05-0.71,0.08
	c-0.15-0.12-0.48-0.42-1.08-0.28c-0.03,0.01-0.22,0.01-0.34,0.02c-0.01,0-0.01-0.02-0.01-0.02c-0.07-0.14-0.24-0.29-0.63-0.26
	c-0.36-0.71-0.92-1.18-2.19-0.95c-0.04-0.05-0.07-0.11-0.11-0.17l-1.96-1.61l-2.14-0.8c-0.76-0.08-1.04-0.2-1.39-0.8
	c-0.11-0.17-0.26-0.42-0.5-0.58c-0.76-0.54-2.03-1.18-2.76-1.8c0-0.12,0-0.27-0.17-0.4c0,0-1.01-0.7-1.49-1.25
	c-0.08-1.28-1.39-1.57-1.95-1.57c-0.77,0-2.1,0.53-2,1.67c-0.27,0.18-0.54,0.4-0.54,0.8c0,0.85,0.41,0.96,0.89,1.29
	c0.13,0.1,0.31,0.17,0.37,0.32c0.24,0.54,0.65,0.8,1.03,1.05c0.17,0.11,0.33,0.22,0.48,0.35c0.29,0.29,0.67,0.57,1.04,0.84
	c0.53,0.5,1.08,0.93,1.66,1.25c0.08,0.31,0.08,1.05,1.05,1c0.1,0.05,0.28,0.24,0.44,0.43c-0.11,0.57,0.28,0.86,0.76,0.74
	c0.06,0.04,0.2,0.11,0.2,0.12c0.09,0.32,0.41,0.34,0.55,0.32c0.4-0.1,0.68,0.05,1.08,0.36c-0.27,0.21-0.33,0.43-0.38,0.68
	c-0.14,0.02-0.3,0.14-0.43,0.27c-0.35,0.35-0.91,0.81-1.28,1.08c-0.21,0.15-0.55,0.55-0.6,0.62c-0.17,0.2-0.3,0.36-0.48,0.46
	c-0.74,0.44-0.53,1.43,0.04,1.62c0.07,0.25,0.32,0.35,0.49,0.35c0.27,0,0.66,0.2,1.13,0.2c0.35,0,0.53-0.1,0.66-0.16
	c0.82,0.07,1.73-0.32,2.32-0.9c0.77-0.25,1.98-0.7,2.72-2.07c0,0,1.4,0.66,1.95,0.95c0.2,0.1,0.42,0.12,0.77,0.04
	c0.21,0.04,4.28,1.09,4.28,1.09c0,0.17,0.27,0.35,0.47,0.35c0.23,0,0.37-0.07,0.45-0.24c0.08-0.04,0.27-0.07,0.43-0.04
	c0.44,0.2,0.87,0.26,1.28,0.31c0.98,0.13,0.95,0.3,1.48,0.3c0.61,0,1.11-0.47,1.84-0.47c0.64,0,1.4,0.25,2.19,0.25
	c0.56,0,0.95-0.17,1.13-0.26c0.71-0.05,1.45-0.13,1.87-0.44c0.29-0.21,0.39-0.41,0.54-0.41c0.2,0,0.56,0.37,0.96,0.37
	c0.35,0,0.48-0.03,0.93-0.34c0.34,0.06,0.74,0.05,1.02-0.25c0.55,0.06,1,0.05,1.45-0.53c0.74,0.13,0.86-0.09,0.99-0.24
	c0.2,0.03,0.49,0.06,0.69-0.11c0.16-0.13,0.22-0.26,0.51-0.3c0.81-0.1,1.38-0.53,1.88-0.91c0.31-0.24,0.55-0.32,0.81-0.53
	c0.19-0.13,0.45-0.38,0.71-0.45c0.4-0.1,1.15-0.4,1.67-0.67c0.33-0.17,0.46-0.4,0.49-0.46c0.64,0,0.96-0.46,1.27-1.11
	c1.25-0.21,3.17-2.17,4.35-3.38c0.61-0.19,1.07-0.87,1.38-1.35c0.22-0.32,0.42-0.64,0.7-0.83c0.82-0.58,0.96-0.88,0.96-1.42
	c0-0.4-0.16-1.05-0.15-1.28c0.35-0.4,0.8-0.47,0.85-0.94c0.36-0.17,0.27-0.68,0.38-0.95c0.64-0.3,1.15-0.68,1.34-1.48
	c0.3-1.17,0.92-1.59,1.25-3.17c0.1-0.46,0.25-0.64,0.52-0.86c0.4-0.33,0.49-0.79,0.54-0.96c0.04-0.13,0.26-0.63,0.33-0.79
	c0.14-0.34,0.18-0.88,0.26-1.19c0.11-0.32,0.44-0.81,0.44-1.42c0-0.2-0.17-0.44-0.18-0.47c0.13-0.37-0.13-0.67-0.48-0.68
	c0.02-0.14,0.03-0.74,0.04-0.86c0.01-0.23,0.4-0.62,0.4-1.21c0-0.21-0.05-0.43-0.2-0.7c0.18-0.17,0.32-0.33,0.47-0.74
	c0.11-0.3,0.03-2.29,0.07-2.6c0.04-0.3-0.2-1.39-0.2-1.71c0-0.27,0-0.49,0.02-0.83c0.02-0.34-0.69-1.22-0.74-1.3
	c0,0-0.36-1.13-0.37-1.25c0-0.35-0.2-0.59-0.34-0.73c-0.12-0.35-0.48-1.33-0.63-1.72c-0.15-0.35-0.25-0.47-0.51-0.59
	c-0.25-0.48-1.7-0.98-2.78,0.64c-0.43,0.64-0.44,1.02-0.44,1.11c0,0.66,0.25,1.74,0.33,1.93c0.08,0.19,0.24,0.64,0.35,0.93
	c0.22,0.49-0.03,2.2,0.27,2.85c0.15,0.29,0.57,1,0.68,1.2c0.12,0.19-0.03,1.01-0.05,1.24c-0.04,0.22,0.25,0.97,0.25,0.97
	c-0.49,0.29-1.07,0.86-1.07,1.76c0,0.38,0.18,0.97,0.18,1.25c0,0.17-0.03,0.36-0.03,0.41c0,0.53,0.16,0.78,0.16,1.17
	c0,0.5-0.6,1.19-0.6,1.66c0,0.24,0.07,0.71,0.07,0.84c-0.24,0.14-0.29,0.44-0.15,0.76c-0.68,0.45-1.35,1.75-1.31,2.93
	c-0.16,0.05-0.33,0.16-0.41,0.47c-0.16,0.91-0.91,1.58-1.25,1.85c-0.55,0.37-1.25,0.9-1.25,1.65c0,0.35,0.29,1.18,0.29,1.3l0,0
	c-0.13,0.33-0.79,0.5-1.16,0.88c-0.19,0.2-0.3,0.4-0.53,0.55c-0.26,0.2-0.62,0.25-0.86,0.61c-0.48,0.67-0.94,2.18-2.48,2.37
	c-0.88,0.1-1.31,0.24-1.52,1.59c-0.71,0.28-1.17,0.62-1.72,1.09c-0.32-0.16-0.69-0.07-0.8,0.37c-0.45,0.04-0.68,0.26-1.12,0.39
	c-0.16,0.04-0.29,0.17-0.33,0.32c-0.29,0.12-1.04,0-1.59,0.17c-0.61,0.19-0.94,0.55-1.35,0.72c-0.28,0.11-0.74,0.13-0.88,0.5
	c-0.13,0.02-0.71,0.02-0.85,0.02c-1.22,0-1.56,0.61-2.21,0.61c-0.29,0-1-0.03-1.63,0.09c-0.54,0.09-0.81,0.27-1.12,0.34
	c-0.06,0.01-1.3,0.24-1.48,0.26c-0.31-0.54-1.66-0.75-2.16-1.09c-0.37-0.21-0.66-0.53-1.03-0.9c-0.23-0.25-0.55-0.23-0.73-0.21
	L392.21,321.61z"/>
</svg>
